<svg xmlns="http://www.w3.org/2000/svg" width="50" height="50" viewBox="0 0 240 240" fill="none">
    <defs>
        <linearGradient id="tg" x1="120" y1="0" x2="120" y2="240" gradientUnits="userSpaceOnUse">
            <stop stop-color="#2AABEE" />
            <stop offset="1" stop-color="#229ED9" />
        </linearGradient>
    </defs>
    <circle cx="120" cy="120" r="120" fill="url(#tg)" />
    <path fill="#fff" d="M54 118.7c35-15.2 58.3-25.3 70-30.2 33.3-13.9 40.2-16.3 44.7-16.4 1 0 3.2.2 4.7 1.4.8.7 1.2 1.6 1.4 2.6.2 1 .4 3.2.2 4.9-1.8 19-9.7 65.1-13.7 86.4-1.7 9-5 12.1-8.2 12.4-7 .6-12.3-4.6-19-9-10.6-7-16.6-11.3-26.9-18.1-11.9-7.8-4.2-12.1 2.6-19.1 1.8-1.8 32.5-29.8 33.1-32.3.1-.3.1-1.5-.6-2.1-.7-.6-1.7-.4-2.5-.2-1.1.2-17.9 11.4-50.6 33.4-4.8 3.3-9.1 4.9-13 4.8-4.3-.1-12.5-2.4-18.6-4.4-7.5-2.4-13.5-3.7-13-7.9.3-2.2 3.3-4.4 9.1-6.6z" />
</svg>
